<?xml version="1.0" encoding="UTF-8" standalone="no"?>
<svg
    viewBox="0 0 400 450"
    version="1.1"
    id="logo"
    xmlns="http://www.w3.org/2000/svg">

  <defs>
    <path id="path-y"
      d="m 206.946,45.2057 c 1.994,-13.4569 15.407,-0.2621 22.256,2.645 14.327,8.7018 29.528,16.1355 43.241,25.7292 8.695,10.2049 4.014,24.5349 5.213,36.7981 0.158,20.017 -0.32,40.061 0.244,60.059 1.715,17.482 22.442,14.822 17.436,-1.846 0.322,-25.36 -0.65,-50.805 0.497,-76.1109 6.669,-6.47 14.857,3.8611 21.758,6.4016 14.47,9.0343 30.368,16.0953 43.833,26.5203 7.854,10.016 3.472,23.629 4.622,35.416 -0.118,50.333 0.236,100.681 -0.177,151.003 -2.461,15.301 -19.508,18.871 -30.496,26.591 -43.758,24.944 -87.19,50.529 -131.151,75.07 -13.63,4.544 -24.37,-7.731 -35.886,-12.924 -11.715,-7.126 -24.148,-13.191 -35.378,-21.035 -3.627,-8.531 10.344,-10.655 15.402,-15.21 l 137.586,-80.367 c 12.091,-9.542 -0.648,-22.356 -10.947,-26.151 -20.958,-12.346 -42.539,-23.762 -63.095,-36.708 -8.312,-9.363 -3.791,-22.864 -4.958,-34.269 z"
    />
    <path id="path-s"
      d="m 193.036,45.8757 c -1.676,-13.4684 -15.105,0.1276 -21.905,2.8463 -43.524,25.3306 -87.4231,50.0849 -130.7127,75.777 -10.2922,8.706 -5.2716,23.226 -6.4727,34.924 v 142.433 c 2.0203,13.044 15.1936,-0.063 21.9059,-2.845 20.1061,-11.416 39.9106,-23.425 60.2085,-34.465 19.571,-1.568 8.339,19.088 -3.663,21.639 -21.4755,12.749 -43.6327,24.472 -64.6639,37.89 -1.6051,8.835 11.5386,10.857 17.392,15.723 14.4693,8.15 28.6174,16.941 43.2959,24.674 12.84,2.064 22.708,-8.78 33.675,-13.783 40.52,-23.394 81.04,-46.789 121.56,-70.183 7.745,-9.296 -6.712,-12.885 -12.536,-17.031 -17.288,-10.443 -35.539,-19.496 -52.172,-30.885 -9.601,-10.742 -4.684,-26.011 -5.902,-39.08 -0.399,-16.571 0.816,-33.308 -0.642,-49.771 -6.418,-5.452 -14.531,4.624 -21.264,7.041 l -58.004,33.486 c -17.331,-0.695 -4.279,-22.301 7.154,-24.542 21.882,-12.827 44.125,-25.094 65.779,-38.272 10.907,-8.744 5.766,-23.7835 6.967,-35.8136 z"
    />
    <path id="path-border"
      d="M 381.37331,330.24069 199.9999,435.48063 18.626689,330.24069 V 119.75974 L 199.9999,14.519371 381.37331,119.75974 Z"
    />
  </defs>
  <style>
    svg {
      --mX: 50%;
      --mY: 50%;
    }

    @keyframes logo-stroke-draw {
      from {
        stroke-dashoffset: 1300;
      }
      to {
        stroke-dashoffset: 0;
      }
    }
    @keyframes logo-flash {
      0%, 100% {
        filter: 
          drop-shadow(-1px -1px 0px transparent)
          drop-shadow(0 0 0px transparent)
          drop-shadow(1px 1px 0px transparent);
      }
      50% {
        filter: 
          drop-shadow(-1px -1px 10px var(--flash, #fff))
          drop-shadow(0 0 10px var(--flash, #fff))
          drop-shadow(1px 1px 10px var(--flash, #fff));
      }
    }

    .logo-outline {
      fill: var(--foreground, #ffffffff);
      fill-opacity: 0;
      stroke: var(--foreground, #ffffffff);

      animation: logo-stroke-draw 1s linear, logo-flash 1s 1s ease-in-out;
    }

    .logo-path {
      stroke-width: 4;
      stroke-linecap: round;
      stroke-linejoin:round;
      stroke-dasharray: 1300;
      stroke-dashoffset: 0;
      stroke-opacity: 1;
    }

    .logo-filled-blue {
      fill: #306998;
      fill-opacity: 1;
      stroke: #306998;
    }

    .logo-filled-yellow {
      fill: #ffd43b;
      fill-opacity: 1;
      stroke: #ffd43b;
    }

    .logo-border {
      fill: none;
      stroke: var(--foreground, #ffffffff);
    }

    #bounds {
      pointer-events: all;
    }

    #outline-mask > circle,
    #filled-mask > circle {
      cx: var(--mX);
      cy: var(--mY);

      r: 0;
      transition: r 0.5s 0.05s;
    }

    #bounds:hover #filled-mask > circle,
    #bounds:hover #outline-mask > circle {
      r: 150%;
    }
  </style>
  <g id="bounds">
    <mask id="outline-mask">
      <rect fill="white" x="0" y="0" width="100%" height="100%" />
      <circle fill="black" cx="0" cy="0" r="0" />
    </mask>
    <mask id="filled-mask">
      <circle fill="white" cx="0" cy="0" r="0" />
    </mask>

    <g id="outlines" mask="url(#outline-mask)">
      <use href="#path-y" id="outline-y" class="logo-outline logo-path" />
      <use href="#path-s" id="outline-s" class="logo-outline logo-path" />
    </g>
    <g id="filled" mask="url(#filled-mask)">          
      <use href="#path-y" id="filled-y" class="logo-filled-yellow logo-path" />
      <use href="#path-s" id="filled-s" class="logo-filled-blue logo-path" />
    </g>
    <use href="#path-border" id="border" class="logo-border logo-path" />
  </g>
  <script>
    (()=>{
      const logo = document.getElementById('logo');
      const bounds = logo.getElementById('bounds');

      const svgCoords = (svg, x, y) => {
        const p = svg.createSVGPoint();
        p.x = x;
        p.y = y;
        return p.matrixTransform( svg.getScreenCTM().inverse() );
      }

      const setCoords = (e) => {
        const p = svgCoords(logo, e.clientX, e.clientY);
        logo.style.setProperty('--mX', `${Math.round(p.x)}px`);
        logo.style.setProperty('--mY', `${Math.round(p.y)}px`);
      }

      bounds.addEventListener('mouseenter', setCoords);
      bounds.addEventListener('mouseleave', setCoords);
    })();
  </script>
</svg>
