<svg version="1.1" xmlns="http://www.w3.org/2000/svg" xmlns:svg="http://www.w3.org/2000/svg">
    <defs>
        <symbol id="sun" viewBox="0 0 32 32">
            <g id="sun-group">
                <path id="sun-body"
                    d="M 16 8.84468 C 12.0463 8.84476 8.84126 12.0482 8.84126 15.9998 C 8.84126 19.9514 12.0463 23.1548 16 23.1549 C 19.9537 23.1548 23.1587 19.9514 23.1587 15.9998 C 23.1587 12.0482 19.9537 8.84476 16 8.84468 Z M 16 9.9025 C 19.3691 9.90263 22.1003 12.6324 22.1004 15.9998 C 22.1005 17.617 21.4578 19.1679 20.3138 20.3115 C 19.1697 21.4551 17.618 22.0976 16 22.0976 C 14.382 22.0976 12.8303 21.4551 11.6862 20.3115 C 10.5422 19.1679 9.89949 17.617 9.89959 15.9998 C 9.89966 12.6324 12.6308 9.90263 16 9.9025 Z"
                />
                <path id="sun-beam1"
                    d="M 15.6486 1.48791 C 16.0673 1.48791 16.4045 1.82504 16.4045 2.2438 L 16.4045 6.36337 C 16.4045 6.78213 16.0673 7.11925 15.6486 7.11925 C 15.2298 7.11925 14.8927 6.78213 14.8927 6.36337 L 14.8927 2.2438 C 14.8927 1.82504 15.2298 1.48791 15.6486 1.48791 Z" 
                />
                <path id="sun-beam2"
                    d="M 26.0131 5.48998 C 26.3092 5.78609 26.3092 6.26286 26.0131 6.55896 L 23.1001 9.47194 C 22.804 9.76805 22.3272 9.76805 22.0311 9.47194 C 21.735 9.17583 21.735 8.69907 22.0311 8.40296 L 24.9441 5.48998 C 25.2402 5.19387 25.717 5.19387 26.0131 5.48998 Z" 
                />
                <path id="sun-beam3"
                    d="M 30.512 15.6486 C 30.512 16.0674 30.1749 16.4045 29.7561 16.4045 L 25.6365 16.4045 C 25.2178 16.4045 24.8806 16.0674 24.8806 15.6486 C 24.8806 15.2299 25.2178 14.8927 25.6365 14.8927 L 29.7561 14.8927 C 30.1749 14.8927 30.512 15.2299 30.512 15.6486 Z" 
                />
                <path id="sun-beam4"
                    d="M 26.51 26.0131 C 26.2139 26.3092 25.7371 26.3092 25.441 26.0131 L 22.528 23.1002 C 22.2319 22.804 22.2319 22.3273 22.528 22.0312 C 22.8241 21.7351 23.3009 21.7351 23.597 22.0312 L 26.51 24.9441 C 26.8061 25.2403 26.8061 25.717 26.51 26.0131 Z" 
                />
                <path id="sun-beam5"
                    d="M 16.3513 30.512 C 15.9325 30.512 15.5954 30.1749 15.5954 29.7561 L 15.5954 25.6366 C 15.5954 25.2178 15.9325 24.8807 16.3513 24.8807 C 16.77 24.8807 17.1072 25.2178 17.1072 25.6366 L 17.1072 29.7561 C 17.1072 30.1749 16.77 30.512 16.3513 30.512 Z"
                />
                <path id="sun-beam6"
                    d="M 5.98681 26.51 C 5.69071 26.2139 5.6907 25.7371 5.98681 25.441 L 8.89979 22.528 C 9.1959 22.2319 9.67267 22.2319 9.96877 22.528 C 10.2649 22.8242 10.2649 23.3009 9.96877 23.597 L 7.0558 26.51 C 6.75969 26.8061 6.28292 26.8061 5.98681 26.51 Z"
                />
                <path id="sun-beam7"
                    d="M 1.48788 16.3513 C 1.48788 15.9326 1.825 15.5954 2.24376 15.5954 L 6.36334 15.5954 C 6.7821 15.5954 7.11922 15.9326 7.11922 16.3513 C 7.11922 16.7701 6.7821 17.1072 6.36334 17.1072 L 2.24376 17.1072 C 1.825 17.1072 1.48788 16.7701 1.48788 16.3513 Z"
                />
                <path id="sun-beam8"
                    d="M 5.48993 5.98686 C 5.78604 5.69075 6.26281 5.69075 6.55892 5.98686 L 9.4719 8.89984 C 9.768 9.19595 9.768 9.67271 9.47189 9.96882 C 9.17579 10.2649 8.69902 10.2649 8.40291 9.96882 L 5.48993 7.05584 C 5.19383 6.75973 5.19383 6.28297 5.48993 5.98686 Z"
                />
            </g>
        </symbol>
        <symbol id="moon" viewBox="0 0 32 32">
            <g id="moon-group">
                <path id="moon-body"
                    d="M 13.180856,4.3886934 A 11.821005,11.82721 45 0 0 7.8577313,7.4288939 11.821005,11.82721 45 0 0 7.8534358,24.150413 11.821005,11.82721 45 0 0 24.574951,24.146117 11.821005,11.82721 45 0 0 27.607466,18.849463 11.821005,11.82721 45 0 1 16.215902,15.787068 11.821005,11.82721 45 0 1 13.180828,4.3886703 Z"
                />
            </g>
        </symbol>
        <symbol id="system" viewBox="0 0 32 32">
            <g id="system-group">
                <path id="system-body"
                    d="M 16.0008,4.1458225 C 12.854927,4.1456403 9.8379494,5.3945131 7.6135708,7.617616 5.389159,9.8408349 4.1394744,12.856155 4.1394744,16.000207 c 0,3.144051 1.2496846,6.159371 3.4740964,8.38259 2.2243786,2.223053 5.2413562,3.471926 8.3870642,3.47176 6.550369,-1.65e-4 11.860481,-5.30746 11.860481,-11.85435 0,-6.5468905 -5.310112,-11.8542519 -11.860481,-11.8543845 z m 0,1.6686485 c 5.62788,-1.66e-5 10.190458,4.559844 10.190789,10.184907 0,2.701363 -1.073587,5.292219 -2.984836,7.202308 -1.911083,1.910255 -4.503265,2.983345 -7.205953,2.983345 z"
                />
            </g>
        </symbol>
    </defs>
</svg>